# xmcd CD database file
#
# Track frame offsets:
#	150
#	12840
#	22696
#	34219
#	45751
#	56014
#	69091
#	81348
#	91956
#	103619
#	114909
#	125127
#	136842
#	143795
#	156168
#	166591
#	181371
#	192307
#	204063
#	220633
#
# Disc length: 3076 seconds
#
# Revision: 2
# Processed by: cddbd v1.5.2PL0 Copyright (c) Steve Scherf et al.
# Submitted via: CDex 1.51
#
DISCID=f70c0214
DTITLE=Various Artist - Country's Most Wanted
DYEAR=1900
DGENRE=Country
TTITLE0=Lynn Anderson - Rose Garden
TTITLE1=Willie Nelson - I Didn't Sleep A Wink
TTITLE2=Barbara Fairchild - You Can't Put The City In A Country Girl
TTITLE3=Patsy Cline - Walking After Midnight
TTITLE4=Dave Dudley - Six Days On The Road
TTITLE5=Slim Whitman - Red Sails In The Sunset
TTITLE6=Frankie Laine - High Noon
TTITLE7=Ferlin Husky - Gone
TTITLE8=Roy Drusky - Three Hearts In A Tangle
TTITLE9=Anne Murray - The Last Thing On My Mind
TTITLE10=Slim Whitman - Anytime You Are Feeling Lonely
TTITLE11=Patsy Cline - I've Loved And Lost Again
TTITLE12=Willie Nelson - Both Ends Of The Candle
TTITLE13=The Oakridge Boys - The Shelter Of Your Arms
TTITLE14=Tex Ritter - Have I Stayed Away Too Long
TTITLE15=Slim Whitman - Mocking Bird Hill
TTITLE16=Patsy Cline - I Don't Wanna
TTITLE17=Frankie Laine - Strange Lady In Town
TTITLE18=Lynn Anderson - Blue Bayou
TTITLE19=Kenny Rogers - Where Does Rosie Go ?
EXTD=
EXTT0=
EXTT1=
EXTT2=
EXTT3=
EXTT4=
EXTT5=
EXTT6=
EXTT7=
EXTT8=
EXTT9=
EXTT10=
EXTT11=
EXTT12=
EXTT13=
EXTT14=
EXTT15=
EXTT16=
EXTT17=
EXTT18=
EXTT19=
PLAYORDER=
